<svg xmlns="http://www.w3.org/2000/svg" width="7.26mm" height="5.01mm" viewBox="0 0 20.58 14.21"><defs><style>.cls-1{fill:#4e4e4d;fill-rule:evenodd;}</style></defs><title>Ресурс 8</title><g id="Слой_2" data-name="Слой 2"><g id="Layer_1" data-name="Layer 1"><path class="cls-1" d="M19,7.7H13.31A9.53,9.53,0,0,1,20,3.82,12.84,12.84,0,0,1,19,7.7m-6.76,0H7.65A11.49,11.49,0,0,1,9.93,0C11.52,1.75,12.35,4.71,12.21,7.7Zm-5.68,0H1A12.68,12.68,0,0,1,0,3.81,9.27,9.27,0,0,1,6.53,7.69ZM17.89,9.86H2a6.9,6.9,0,0,1-.61-1H18.5A5.69,5.69,0,0,1,17.89,9.86Zm-1.83,2H3.77a4.76,4.76,0,0,1-1-.93H17.09A8.29,8.29,0,0,1,16.06,11.86Zm-5.19.86H8.93a6.61,6.61,0,0,0,1,1.49A7.08,7.08,0,0,0,10.87,12.71Zm.4,0L11.06,14a11.49,11.49,0,0,0,3.72-1.29Zm-2.68,0H5.08a11.25,11.25,0,0,0,3.68,1.37Z"/><path class="cls-1" d="M19.5,3.26a.91.91,0,1,1,.91-.91.91.91,0,0,1-.91.91m0-2h0a1.09,1.09,0,1,0,0,2.17h0a1.09,1.09,0,0,0,0-2.17Z"/><path class="cls-1" d="M19.5,2.26h-.23V2h.36a.13.13,0,0,1,.09,0,.11.11,0,0,1,0,.09.19.19,0,0,1,0,.09.17.17,0,0,1-.07,0H19.5m.32.26-.13-.1a.37.37,0,0,0,.24-.11A.3.3,0,0,0,20,2.1a.4.4,0,0,0-.06-.19.27.27,0,0,0-.14-.11.74.74,0,0,0-.28,0H19V2.95h.23v-.5h.17l.06,0h0l.13.18.17.26h.29L20,2.72A1.19,1.19,0,0,0,19.81,2.53Z"/></g></g></svg>