<svg xmlns="http://www.w3.org/2000/svg" width="7.9mm" height="7.3mm" viewBox="0 0 22.39 20.69"><defs><style>.cls-1{fill:#4e4e4d;fill-rule:evenodd;}</style></defs><title>Ресурс 4</title><g id="Слой_2" data-name="Слой 2"><g id="Layer_1" data-name="Layer 1"><path class="cls-1" d="M6,12.72a1.86,1.86,0,0,1-.66.65.44.44,0,0,1-.25.07l-.33,0a.45.45,0,0,0-.25.1l-.05.07v0s0,0,0,0a.09.09,0,0,0,.06,0H5l.06,0h0a0,0,0,0,1,0,0,.11.11,0,0,0,0,.09.41.41,0,0,0,.15.08l.5.18a.57.57,0,0,1,.19.11A.47.47,0,0,1,6.26,14a.91.91,0,0,1,.37,0l.51.08v-.39a.17.17,0,0,1-.16,0,.29.29,0,0,1-.1-.15.74.74,0,0,1,0-.43.45.45,0,0,1,.09-.24.18.18,0,0,1,.2-.06V12.4l.06-.06h.19c.18-.18.35-.34.54-.5a2.16,2.16,0,0,0,.49-.53.18.18,0,0,1,0-.12.77.77,0,0,1,.18-.39.76.76,0,0,1,.21-.2l.08,0a.1.1,0,0,1,.1,0,1.93,1.93,0,0,1,.48.79,4.45,4.45,0,0,1,.22.75.25.25,0,0,1,0,.09.39.39,0,0,1-.12.1l-.29.16a.37.37,0,0,0-.11.1s0,0,0,.07c0,.2,0,.41-.06.61a.7.7,0,0,1-.17.35.41.41,0,0,1-.31.1,2.42,2.42,0,0,1-1.16.91,1.37,1.37,0,0,1-.35.6,4.69,4.69,0,0,1-1.3.85,8.27,8.27,0,0,0-2.71,2,2.73,2.73,0,0,1-.51.47,1.22,1.22,0,0,1-.25.09h0l-.06-.05A.63.63,0,0,1,2,18.41a.22.22,0,0,1,0-.06H2s0,0,0,0H2a1.39,1.39,0,0,1-.34.82.69.69,0,0,1-.39.2l-.68.08a1.16,1.16,0,0,0-.36.12A.38.38,0,0,0,0,20a.68.68,0,0,0,.46.62,1.42,1.42,0,0,0,.93.06,2.91,2.91,0,0,0,1-.37,1.29,1.29,0,0,0,.36-.39A2.19,2.19,0,0,1,4,19a1.39,1.39,0,0,0,.48-.28,7.66,7.66,0,0,1,.73-.57l.23-.11a9.6,9.6,0,0,0,1.71-1,5.33,5.33,0,0,1,1.3-.68c.45-.22.87-.46,1.3-.72a2.07,2.07,0,0,1,1.19-.3,3,3,0,0,1,.78.26,14.63,14.63,0,0,0,2.44.92,4,4,0,0,1,1.79.81A13.89,13.89,0,0,0,18.28,19a3.13,3.13,0,0,1,1.37,1.47.31.31,0,0,0,.12.18.24.24,0,0,0,.22,0,.93.93,0,0,0,.32-.16c.25-.2.5-.37.75-.55a5,5,0,0,0,.94-.66,2.17,2.17,0,0,0,.28-.33.41.41,0,0,0,.08-.15.15.15,0,0,0,0-.11.11.11,0,0,0-.06-.07.36.36,0,0,0-.19-.05,1.44,1.44,0,0,0-.74.21l-.11.08a.22.22,0,0,1-.1.06.91.91,0,0,1-.5,0,.58.58,0,0,1-.18-.09.23.23,0,0,1-.07-.09v-.06l0-.26v-.05s0,0,0,0h0l0,0-.06.05a.56.56,0,0,1-.75,0,.14.14,0,0,1-.06-.07,1.92,1.92,0,0,0-.46-.54l-1.52-1.27c-.33-.21-.66-.44-1-.67a2.2,2.2,0,0,0-.25-.21,3.31,3.31,0,0,0-.55-.25,1.11,1.11,0,0,1-.34-.19.49.49,0,0,1-.16-.44,2.53,2.53,0,0,1-.46-.2,9.09,9.09,0,0,1-1.28-.8.17.17,0,0,1-.07-.09,1.49,1.49,0,0,1-.09-.28,1,1,0,0,0-.1-.29.26.26,0,0,0-.18-.14l-.11,0a.51.51,0,0,1-.25-.24.84.84,0,0,1-.05-.35c0-.26.08-.51.14-.75a4,4,0,0,0-.4-2.33A1,1,0,0,1,12.27,9,2.43,2.43,0,0,1,12.36,8a6.06,6.06,0,0,0,.27-1.29A3.62,3.62,0,0,1,13,5.4,1.6,1.6,0,0,0,13.15,5a5.14,5.14,0,0,0,.15-1.19,3.37,3.37,0,0,1,.22-1.29.43.43,0,0,1,.07-.11.65.65,0,0,1,.23-.1,1.25,1.25,0,0,0,.39-.16,1.19,1.19,0,0,0,.45-.89,1.15,1.15,0,0,0-.42-.91,1.17,1.17,0,0,0-1.4-.24,1.3,1.3,0,0,0-.57,1.33,5.08,5.08,0,0,0,.27.76,1.47,1.47,0,0,1,.14.7,3.61,3.61,0,0,1-.34,1.23,3.54,3.54,0,0,0-.29.91,6.59,6.59,0,0,1-.29,1.21,1,1,0,0,1-.44.57.24.24,0,0,1-.25,0,.69.69,0,0,1-.21-.15l-.43-.4A.7.7,0,0,0,10,6.14a1.36,1.36,0,0,0-1,.61.61.61,0,0,0-.07.58l.25.5a1,1,0,0,1,.14.4A.28.28,0,0,1,9,8.54a1,1,0,0,1-.35.05,9.6,9.6,0,0,0-.9,1.51,5.55,5.55,0,0,1-.5.72c-.28.42-.54.85-.79,1.29a2.62,2.62,0,0,1-.52.6Z"/></g></g></svg>