<svg xmlns="http://www.w3.org/2000/svg" width="9.32mm" height="5.37mm" viewBox="0 0 26.43 15.22"><defs><style>.cls-1{fill:#4e4e4d;fill-rule:evenodd;}</style></defs><title>Ресурс 3</title><g id="Слой_2" data-name="Слой 2"><g id="Layer_1" data-name="Layer 1"><polygon class="cls-1" points="11.07 0.68 10.94 0.01 8.71 0.01 6.45 0 6.35 0.25 8.71 0.47 11.07 0.68 11.07 0.68"/><polygon class="cls-1" points="8.71 4.81 12 5.12 11.75 3.89 8.71 4.08 4.74 4.34 4.61 4.34 4.56 4.44 4.74 4.46 8.71 4.81 8.71 4.81"/><polygon class="cls-1" points="11.54 2.89 11.34 1.89 8.71 2.07 5.49 2.27 5.46 2.35 8.71 2.64 11.54 2.89 11.54 2.89"/><polygon class="cls-1" points="1.07 12.64 1 12.82 4.74 13.16 5.43 13.23 5.81 12.32 4.74 12.39 1.07 12.64 1.07 12.64"/><path class="cls-1" d="M25.74.84A6.17,6.17,0,0,0,22.16.06H15.34l-.56,1,2.27.21L19,1.39l-1.92.13-2.67.16-.78,1.39,3.45.31.88.09-.88.06-3.86.25-.78,1.36,4.49.41-8.2.53-4,.26-1,.07-.06.12,1.07.09,4,.37,7.16.65-7.16.47-4,.25-1.91.13-.06.13,2,.19,4,.35,6.12.56-6.12.4-1.22.09.29,1.06.92.09,5.08.45-5.08.34-.66,0,.37,1.32.29,0,4,.37-4,.26H8.6l.12.43.18.62h7a8.4,8.4,0,0,0,1.22,0,9.49,9.49,0,0,0,2.36-.47,8.45,8.45,0,0,0,1.11-.47,7,7,0,0,0,3.12-3.55A3.77,3.77,0,0,0,24,8.45a1.64,1.64,0,0,0-1.14-1.26A8.46,8.46,0,0,0,24.66,5.9a6.21,6.21,0,0,0,1.39-2,4.11,4.11,0,0,0,.38-1.45V2.16A1.72,1.72,0,0,0,25.74.84Zm-6.1,9.46a2.21,2.21,0,0,1-.22.41,1.89,1.89,0,0,1-.82.73,3.68,3.68,0,0,1-1.48.23h-2.8l1.55-2.8h1.91a4.67,4.67,0,0,1,1.64.21h0c.38.21.44.6.19,1.2Zm1.85-5.5a2.09,2.09,0,0,1-.84,1,2.34,2.34,0,0,1-1.23.32H17.23L18.6,3.59h1.58a2.6,2.6,0,0,1,1.19.18c.31.18.34.51.12,1Z"/><polygon class="cls-1" points="1.95 10.56 1.88 10.72 4.74 10.99 6.32 11.13 6.7 10.25 4.74 10.38 1.95 10.56 1.95 10.56"/><polygon class="cls-1" points="0.19 14.71 0 15.15 4.58 15.17 4.74 14.8 4.91 14.4 4.74 14.42 0.19 14.71 0.19 14.71"/></g></g></svg>