<svg xmlns="http://www.w3.org/2000/svg" width="9.39mm" height="3.38mm" viewBox="0 0 26.61 9.58"><defs><style>.cls-1{fill:#4e4e4d;fill-rule:evenodd;}</style></defs><title>Ресурс 7</title><g id="Слой_2" data-name="Слой 2"><g id="Layer_1" data-name="Layer 1"><path class="cls-1" d="M3.41.42C1.68,2.46,0,5,0,6.86a2.23,2.23,0,0,0,.76,1.8,3.7,3.7,0,0,0,2.5.91,9.61,9.61,0,0,0,3.47-.89C8.37,8,26.49.16,26.49.16c.17-.09.14-.2-.08-.14L6.69,5.36a4.33,4.33,0,0,1-1.14.16A2.55,2.55,0,0,1,2.7,2.93,5.79,5.79,0,0,1,3.41.42Z"/></g></g></svg>