<svg xmlns="http://www.w3.org/2000/svg" width="8.04mm" height="6.26mm" viewBox="0 0 22.78 17.74"><defs><style>.cls-1{fill:#4e4e4d;fill-rule:evenodd;}</style></defs><title>Ресурс 6</title><g id="Слой_2" data-name="Слой 2"><g id="Layer_1" data-name="Layer 1"><path class="cls-1" d="M2.15.08C2,.1,1.87.64,1.58.92s-.47.19-.6.44c-.05.09,0,.25-.09.41-.12.31-.52.33-.52.67s.34.43.63.69.25.35.53.45.59-.18.91-.09.51.13.57.4,0,.63-.32.59a3.48,3.48,0,0,0-1.14-.11C.86,4.44.08,4.66,0,5.43a.88.88,0,0,0,1,.83c.35-.07.19-.49.38-.69s1.68.91,3,.91A1.74,1.74,0,0,0,5.79,5.9s.09-.1.15-.11a.52.52,0,0,1,.19.08C7.19,6.74,8,8.47,11.94,8.49a2.66,2.66,0,0,1,1.7.74,4.66,4.66,0,0,1,1,1.76,9.38,9.38,0,0,0,2.17,3.07c.06.06.94.74,1,.79a.43.43,0,0,1,.05.25c0,.65-.12,2.55,1.29,2.64.35,0,.26-.23.26-.39a2,2,0,0,1,.11-1c.24-.47-.51-.68-.48-1.69,0-.75-.62-.62-.93-1.19a1.55,1.55,0,0,1-.34-.91A7.85,7.85,0,0,0,17,8.4c-.22-.28-.4-.39-.2-.52a3.64,3.64,0,0,0,1.45-1.51,9,9,0,0,1,2-3.42A5.79,5.79,0,0,1,21,2.42a5.29,5.29,0,0,0,1.32-.76A1.18,1.18,0,0,0,22.64.25c-.4-.51-1.09-.1-1.39.08C19.07,1.61,18.75,3.89,18,5.19a3.51,3.51,0,0,1-2.45,1.87,4.35,4.35,0,0,1-2.06-.39,10.4,10.4,0,0,1-2.86-1.89c-.46-.35-4-3.85-6.91-4,0,0-.36-.72-.45-.73s-.43.43-.58.48S2.3.05,2.15.08Z"/></g></g></svg>