<svg xmlns="http://www.w3.org/2000/svg" width="12.51mm" height="2.6mm" viewBox="0 0 35.47 7.38"><defs><style>.cls-1{fill:#4e4e4d;}</style></defs><title>Ресурс 5</title><g id="Слой_2" data-name="Слой 2"><g id="Layer_1" data-name="Layer 1"><path class="cls-1" d="M30.74,0H31a.36.36,0,0,1,0,.18C31,1,31,1.81,30.91,2.63a.7.7,0,0,1-.05.31L29.54,5.21a1.62,1.62,0,0,1-.32.24l-1.78,1.2a2.4,2.4,0,0,1-.33.2A1.83,1.83,0,0,1,27,6.57C28.21,4.38,29.49,2.2,30.74,0Z"/><path class="cls-1" d="M31.35,0h.35c.21.4.45.79.67,1.19l2.08,3.6c.34.59.67,1.18,1,1.76v.06a2.26,2.26,0,0,0-.17.26L33,5.35a.49.49,0,0,1-.17-.14l-1.32-2.3a.45.45,0,0,1,0-.18C31.46,1.82,31.39.91,31.35,0Z"/><path class="cls-1" d="M29.83,5.81c.35,0,.71,0,1.06,0h1.6a.42.42,0,0,1,.21.07L35.15,7.1c0,.1-.1.18-.13.28h-7.6a.89.89,0,0,1-.15-.28c.4-.22.82-.42,1.23-.62S29.38,6,29.83,5.81Z"/><path class="cls-1" d="M0,1.87H2.13a4.17,4.17,0,0,1,.92.08,1.7,1.7,0,0,1,1,.59A1.71,1.71,0,0,1,4.34,3.8a1.39,1.39,0,0,1-.6,1A1.85,1.85,0,0,1,2.55,5L4.35,7l.17.2H3.19L1.31,5.15a2.68,2.68,0,0,0-.25-.27c0,.78,0,1.57,0,2.35-.35,0-.7,0-1,0ZM1,2.8c0,.49,0,1,0,1.47H2.41a1.48,1.48,0,0,0,.69-.14.56.56,0,0,0,.27-.41.72.72,0,0,0-.15-.64,1.17,1.17,0,0,0-.78-.28Z"/><path class="cls-1" d="M13.38,1.88c.35,0,.7,0,1,0,0,.44,0,.88,0,1.32A1.49,1.49,0,0,1,15,3a2,2,0,0,1,1.56.33,1.67,1.67,0,0,1,.65,1.32c0,.36,0,.71,0,1.07a1.68,1.68,0,0,1-.47,1.18,1.91,1.91,0,0,1-1.26.52h-.41A2,2,0,0,1,14,7c-.23.07-.41.31-.66.25Q13.38,4.56,13.38,1.88Zm1.64,2a.74.74,0,0,0-.59.66c0,.38,0,.76,0,1.13a.74.74,0,0,0,.42.68,1.11,1.11,0,0,0,.94,0,.74.74,0,0,0,.4-.64c0-.35,0-.71,0-1.06A.75.75,0,0,0,15.86,4,1.08,1.08,0,0,0,15,3.89Z"/><path class="cls-1" d="M22.13,1.87h1q0,1.44,0,2.88c.28-.28.52-.59.78-.88l.84-.95c.43,0,.85,0,1.28,0C26.07,3,26,3,26,3c-.59.67-1.17,1.34-1.77,2,.49.56,1,1.1,1.49,1.66.15.18.33.35.47.54H24.94c-.08,0-.12-.08-.17-.12-.53-.59-1.06-1.18-1.6-1.77,0,.63,0,1.26,0,1.89h-1Q22.12,4.56,22.13,1.87Z"/><path class="cls-1" d="M5.13,3.42a2,2,0,0,1,1.4-.5,2.12,2.12,0,0,1,1.33.38,1.56,1.56,0,0,1,.59,1,4.63,4.63,0,0,1,0,.88,1.29,1.29,0,0,1,0,.3H5.68a1,1,0,0,0,.24.8,1.16,1.16,0,0,0,.72.23,1.13,1.13,0,0,0,.72-.19A.6.6,0,0,0,7.52,6c.32,0,.64,0,1,0a1.44,1.44,0,0,1-.4.92A1.68,1.68,0,0,1,7,7.35H6.21A1.89,1.89,0,0,1,5.1,6.82a1.65,1.65,0,0,1-.46-1.18c0-.35,0-.71,0-1.06A1.64,1.64,0,0,1,5.13,3.42Zm.74.63a.87.87,0,0,0-.19.62H7.46a.87.87,0,0,0-.12-.52.81.81,0,0,0-.63-.34A1,1,0,0,0,5.87,4.06Z"/><path class="cls-1" d="M9.52,3.38a2.05,2.05,0,0,1,1.41-.46,2,2,0,0,1,1.43.51,1.67,1.67,0,0,1,.48,1.28c0,.24,0,.49,0,.73-.92,0-1.85,0-2.78,0a1,1,0,0,0,.18.76,1.08,1.08,0,0,0,.77.28,1,1,0,0,0,.78-.27c.06-.06,0-.17.1-.22h.93a1.41,1.41,0,0,1-.43,1,1.77,1.77,0,0,1-1,.4h-.77a1.8,1.8,0,0,1-1.29-.74A1.68,1.68,0,0,1,9,5.68C9,5.32,9,5,9,4.61A1.66,1.66,0,0,1,9.52,3.38Zm.7.67a.81.81,0,0,0-.19.63h1.78a.86.86,0,0,0-.16-.58.86.86,0,0,0-.65-.3A1,1,0,0,0,10.22,4.05Z"/><path class="cls-1" d="M19.26,2.95a2.41,2.41,0,0,1,1.59.28,1.54,1.54,0,0,1,.67,1,4.11,4.11,0,0,1,.06,1,4.5,4.5,0,0,1,0,.93,1.54,1.54,0,0,1-.66,1,1.9,1.9,0,0,1-.84.3h-.7a1.77,1.77,0,0,1-1.26-.66,1.64,1.64,0,0,1-.3-.77,5.5,5.5,0,0,1,0-.71,3.94,3.94,0,0,1,.08-1.12,1.53,1.53,0,0,1,.67-.88A2,2,0,0,1,19.26,2.95Zm.08.94a.74.74,0,0,0-.42.28.89.89,0,0,0-.14.51q0,.46,0,.92a.86.86,0,0,0,.17.55.83.83,0,0,0,.52.28,1,1,0,0,0,.83-.21.82.82,0,0,0,.24-.62c0-.32,0-.64,0-1A.79.79,0,0,0,20.27,4,1.08,1.08,0,0,0,19.35,3.89Z"/></g></g></svg>