<svg xmlns="http://www.w3.org/2000/svg" width="12.13mm" height="4.62mm" viewBox="0 0 34.39 13.09"><defs><style>.cls-1{fill:#4e4e4d;}</style></defs><title>Ресурс 2</title><g id="Слой_2" data-name="Слой 2"><g id="Layer_1" data-name="Layer 1"><polygon class="cls-1" points="8.89 0.02 11.39 0.02 7.28 12.96 4.19 12.96 0 0.08 2.54 0.09 5.81 9.99 8.89 0.02"/><rect class="cls-1" x="8.89" width="23.29" height="2.23"/><path class="cls-1" d="M11.8,12.95H9.53l2.54-8.77h2.34l2.54,8.77H14.64l-.27-1.14H12.06Zm2.19-3L13.22,6.8l-.73,3.15Z"/><polygon class="cls-1" points="19.9 4.17 22.44 8.94 22.36 6.94 22.36 4.17 24.59 4.17 24.59 12.95 22.4 12.95 19.86 8.18 19.98 10.18 19.98 12.95 17.75 12.95 17.75 4.17 19.9 4.17"/><path class="cls-1" d="M31.81,6.7H29.62a.63.63,0,0,0-.35-.57.79.79,0,0,0-.58-.19q-.77,0-.77.52t1.38.91Q32,8.18,32,10.14q-.08,2.91-3.3,3a3,3,0,0,1-3.15-2.86h2.23a1.35,1.35,0,0,0,.38.72,1.1,1.1,0,0,0,.65.19q1,0,1-.62t-1.34-.91q-2.73-.81-2.73-2.86.08-2.72,3-2.81A2.82,2.82,0,0,1,31.81,6.7Z"/><path class="cls-1" d="M34.29,3.94h-.1a.71.71,0,1,1-.71-.71.71.71,0,0,1,.71.71h.2a.91.91,0,1,0-.91.91.91.91,0,0,0,.91-.91Z"/><path class="cls-1" d="M34,4.39v0h-.24L33.41,4h-.09v.28c0,.09,0,.13.13.13v0H33v0q.15,0,.13-.15V3.61c0-.09,0-.13-.13-.13v0h.4q.36,0,.37.25t-.26.24l.3.37A.17.17,0,0,0,34,4.39Zm-.67-.83v.36c.23,0,.34-.06.34-.21s-.08-.2-.25-.2S33.31,3.52,33.32,3.56Z"/></g></g></svg>