<svg xmlns="http://www.w3.org/2000/svg"  viewBox="0 0 17.61 19.84"><g id="Слой_2" data-name="Слой 2"><g id="Layer_1" data-name="Layer 1"><path class="cls-1" d="M15.09,17"/><path class="cls-1" d="M17.22,2.91H12.85V2a2,2,0,0,0-2-2h-4a2,2,0,0,0-2,2v.86H.39a.39.39,0,0,0,0,.77H1.57V17A2.83,2.83,0,0,0,4.4,19.84h8.82A2.83,2.83,0,0,0,16,17V3.68h1.19a.39.39,0,0,0,0-.77ZM5.53,2A1.28,1.28,0,0,1,6.81.77h4A1.28,1.28,0,0,1,12.08,2v.86H5.53Zm9.72,15.15a2.05,2.05,0,0,1-2,1.88H4.4A2.05,2.05,0,0,1,2.35,17V3.68H15.27Z"/><path class="cls-1" d="M8.8,6a.38.38,0,0,0-.39.39v9.9a.39.39,0,0,0,.39.39.38.38,0,0,0,.39-.39V6.42A.38.38,0,0,0,8.8,6Z"/><path class="cls-1" d="M5.15,6.65A.38.38,0,0,0,4.76,7v8.67a.39.39,0,0,0,.39.39.38.38,0,0,0,.39-.39V7A.38.38,0,0,0,5.15,6.65Z"/><path class="cls-1" d="M12.46,6.65a.38.38,0,0,0-.39.39v8.67a.39.39,0,1,0,.77,0V7A.38.38,0,0,0,12.46,6.65Z"/></g></g></svg>