<svg xmlns="http://www.w3.org/2000/svg" width="7.42mm" height="5.72mm" viewBox="0 0 21.03 16.2"><defs><style>.cls-1{fill:#191919;}</style></defs><title>Ресурс 3</title><g id="Слой_2" data-name="Слой 2"><g id="Layer_1" data-name="Layer 1"><path class="cls-1" d="M19.22,4.74H17.17V1.82A1.82,1.82,0,0,0,15.35,0H1.82A1.82,1.82,0,0,0,0,1.82V9.64a1.82,1.82,0,0,0,1.82,1.82H3.87v2.93A1.82,1.82,0,0,0,5.69,16.2H19.22A1.82,1.82,0,0,0,21,14.39V6.56A1.82,1.82,0,0,0,19.22,4.74ZM16.65,5.89h2.57a.68.68,0,0,1,.67.67v7.83a.68.68,0,0,1-.67.67H5.69A.68.68,0,0,1,5,14.39V6.56a.68.68,0,0,1,.61-.67h11Zm-.05-.17h0ZM4,5.89a1.8,1.8,0,0,0-.13.67v3.75H1.82a.68.68,0,0,1-.67-.67V5.89ZM16,2.44H1.14V1.82a.68.68,0,0,1,.67-.67H15.35a.68.68,0,0,1,.67.67ZM1.14,3.58H16V4.74H1.14Z"/><path class="cls-1" d="M12.82,12.24H16.6a1,1,0,0,0,.95-.7h0a.12.12,0,0,0,0-.13l-2.63-2v-.5a.12.12,0,0,0-.12-.12h-.47a.12.12,0,0,0-.12.12v.17h0a1,1,0,0,1-1.8-.4.12.12,0,0,0-.12-.1h-.13a.12.12,0,0,0-.11.07l-.42,1a.91.91,0,0,0,.57,1.21l2.77.87,0,.09-2.36-.28h0a.06.06,0,0,0,0,.11l1.78.21V12H12.82a.12.12,0,0,0,0,.24ZM14.64,9v.2L14.37,9ZM11.76,10.1a.66.66,0,0,1,0-.32l.36-.88,0,.09a1.26,1.26,0,0,0,2.06.32l0,0,.54.41-.2.58a.06.06,0,0,0,0,.08.07.07,0,0,0,.08,0L15,9.78l.28.21-.17.49a.06.06,0,0,0,0,0l0,0a.06.06,0,0,0,.08,0l.16-.45.28.21-.14.4a.06.06,0,0,0,0,.08.07.07,0,0,0,.08,0l.13-.36,1.57,1.18,0,0a.75.75,0,0,1-.15.2l0,0-5.35-1.67Zm.47.57a.67.67,0,0,1-.38-.3l-.06-.1L17,11.9l-.12,0a.75.75,0,0,1-.51,0Z"/><path class="cls-1" d="M7.66,9.61h.07a0,0,0,0,0,0,0V8.79l.63.81h.09a0,0,0,0,0,0,0v-1a0,0,0,0,0,0,0H8.4a0,0,0,0,0,0,0v.79l-.62-.81H7.66a0,0,0,0,0,0,0v1A0,0,0,0,0,7.66,9.61Z"/><path class="cls-1" d="M8.74,9.61h.7a0,0,0,0,0,0,0V9.51a0,0,0,0,0,0,0h-.6V9.1h.47a0,0,0,0,0,0,0V9a0,0,0,0,0,0,0H8.84v-.3h.57a0,0,0,0,0,0,0V8.57a0,0,0,0,0,0,0H8.74a0,0,0,0,0,0,0v1A0,0,0,0,0,8.74,9.61Z"/><path class="cls-1" d="M9.86,9.6l0,0h.06l0,0,.25-.79.24.79,0,0h.06l0,0,.35-1a0,0,0,0,0,0,0h-.1l0,0-.27.8-.25-.81,0,0h-.06a0,0,0,0,0,0,0l-.24.81-.27-.8,0,0H9.51a0,0,0,0,0,0,0Z"/><path class="cls-1" d="M8,10.33H8c-.17,0-.26-.08-.26-.18S7.8,10,7.95,10a.5.5,0,0,1,.29.09h0a0,0,0,0,0,0,0V10a0,0,0,0,0,0,0,.59.59,0,0,0-.32-.09c-.25,0-.37.14-.37.28s.18.26.35.31h0c.17,0,.27.08.27.2s-.11.18-.27.18a.55.55,0,0,1-.34-.11h0a0,0,0,0,0,0,0v.11a.66.66,0,0,0,.39.11c.23,0,.39-.13.39-.31S8.14,10.37,8,10.33Z"/><path class="cls-1" d="M8.76,10.95h.07a0,0,0,0,0,0,0V10h.33a0,0,0,0,0,0,0V9.91a0,0,0,0,0,0,0H8.4a0,0,0,0,0,0,0V10a0,0,0,0,0,0,0h.33v.91A0,0,0,0,0,8.76,10.95Z"/><path class="cls-1" d="M10,10a0,0,0,0,0,0,0V9.91a0,0,0,0,0,0,0H9.35a0,0,0,0,0,0,0v1a0,0,0,0,0,0,0h.7a0,0,0,0,0,0,0v-.07a0,0,0,0,0,0,0h-.6v-.38h.47a0,0,0,0,0,0,0v-.07a0,0,0,0,0,0,0H9.45V10Z"/><path class="cls-1" d="M11,10.18a.3.3,0,0,0-.34-.3h-.42a0,0,0,0,0,0,0v1a0,0,0,0,0,0,0h.07a0,0,0,0,0,0,0v-.43h.32A.3.3,0,0,0,11,10.18ZM10.64,10c.1,0,.22,0,.22.18s-.12.18-.22.18h-.31V10Z"/><circle class="cls-1" cx="10.98" cy="10.86" r="0.09"/><path class="cls-1" d="M8,11.67H8c-.17,0-.26-.08-.26-.18s.09-.15.24-.15a.5.5,0,0,1,.29.09h0a0,0,0,0,0,0,0v-.08a0,0,0,0,0,0,0,.59.59,0,0,0-.32-.09c-.25,0-.37.14-.37.28s.18.26.35.31h0c.17,0,.27.08.27.2s-.11.18-.27.18a.55.55,0,0,1-.34-.11h0a0,0,0,0,0,0,0v.11a.66.66,0,0,0,.39.11c.23,0,.39-.13.39-.31S8.14,11.71,8,11.67Z"/><path class="cls-1" d="M9.2,11.31v-.07a0,0,0,0,0,0,0H8.38a0,0,0,0,0,0,0v.07a0,0,0,0,0,0,0h.33v.91a0,0,0,0,0,0,0h.07a0,0,0,0,0,0,0v-.91h.33A0,0,0,0,0,9.2,11.31Z"/><path class="cls-1" d="M9.71,11.2a.55.55,0,1,0,.53.55A.53.53,0,0,0,9.71,11.2Zm0,1a.42.42,0,1,1,.4-.42A.4.4,0,0,1,9.71,12.17Z"/><path class="cls-1" d="M11,11.8a.28.28,0,0,0,.23-.29.3.3,0,0,0-.34-.3h-.45a0,0,0,0,0,0,0v1a0,0,0,0,0,0,0h.07a0,0,0,0,0,0,0v-.44h.31l.32.46h.11l0,0a0,0,0,0,0,0,0Zm-.46-.46h.34c.08,0,.21,0,.21.17s-.11.17-.21.17h-.34Z"/><path class="cls-1" d="M12.12,12.16h-.6v-.38H12a0,0,0,0,0,0,0v-.07a0,0,0,0,0,0,0h-.47v-.3h.57a0,0,0,0,0,0,0v-.07a0,0,0,0,0,0,0h-.68a0,0,0,0,0,0,0v1a0,0,0,0,0,0,0h.7a0,0,0,0,0,0,0v-.07A0,0,0,0,0,12.12,12.16Z"/></g></g></svg>