<svg xmlns="http://www.w3.org/2000/svg" width="10.85mm" height="13.63mm" viewBox="0 0 30.76 38.63">
    <defs>
        <style>.cls-1{font-size:14.13px;fill:#191919;font-family:Geometria-Light, Geometria;letter-spacing:-0.02em;}</style>
    </defs>
    <title>Ресурс 4</title>
    <g id="Слой_2" data-name="Слой 2">
        <g id="Layer_1" data-name="Layer 1">
            <path d="M28.5,8.31a.71.71,0,0,0-.71-.65h-5V7.29A7.41,7.41,0,0,0,8,7.29v.37H3a.7.7,0,0,0-.71.65L0,33.7c0,2.75,2.48,4.93,5.53,4.93h19.7c3.05,0,5.54-2.18,5.54-4.87V33.7Zm-19.1-1a6,6,0,0,1,12,0v.38h-12ZM25.23,37.21H5.53c-2.23,0-4.08-1.52-4.11-3.39L3.61,9.09H8v3.68a.71.71,0,0,0,1.42,0V9.09h12v3.68a.71.71,0,0,0,1.42,0V9.09h4.36l2.2,24.69C29.3,35.69,27.46,37.21,25.23,37.21Z"/>
        </g>
    </g>
</svg>