<svg width="100" height="17" viewBox="0 0 100 17" xmlns="http://www.w3.org/2000/svg"><title>Chulakov_Notes_v6</title><g fill="none" fill-rule="evenodd"><path d="M0 0h72v17H0z"/><path d="M11.244 9.36h-2.01c-.017.326-.166.632-.413.846-.246.215-.57.32-.896.293-.966 0-1.507-.712-1.507-1.97v-.077c0-1.27.57-1.97 1.48-1.97.306-.026.61.08.834.29.226.21.352.504.348.81h2.08c-.17-1.843-1.44-2.68-3.272-2.68-.963-.048-1.9.31-2.586.99-.684.676-1.05 1.61-1.01 2.57v.077c0 2.137 1.21 3.56 3.674 3.56 1.822 0 3.142-.938 3.28-2.74zm3.872 2.624v-2.75h2.315v2.75h2.018V5.01H17.43V7.67h-2.315V5.01h-2.03v6.97l2.03.004zM27.94 9.126V5.01H25.9v4.028c0 1.044-.27 1.492-1.104 1.492-.858 0-1.104-.478-1.104-1.463V5.01h-2.017v4.145c0 1.95 1.13 2.946 3.12 2.946 1.943 0 3.144-.946 3.144-2.974zm6.907 2.858v-1.55h-2.66V5.008h-2.03v6.97l4.69.004zm4.84-5.355l.77 2.68H38.91l.778-2.68zm-3.428 5.354h1.88l.376-1.297h2.335l.375 1.297h2.138l-2.236-6.972h-2.61l-2.258 6.972zm10.736 0V9.068l2.03 2.916h2.334l-2.716-3.736 2.58-3.24h-2.11L46.998 7.77V5.01h-2.03v6.97l2.03.004zm12.63-3.492v-.078c0-2.165-1.587-3.502-3.734-3.502-.977-.06-1.934.29-2.64.966-.707.674-1.1 1.612-1.084 2.587v.078c0 2.095 1.42 3.558 3.695 3.558 2.272.002 3.762-1.462 3.762-3.608zm-5.352.04v-.08c0-1.268.62-1.98 1.614-1.98.993 0 1.625.732 1.625 1.97v.08c.007 1.247-.615 2.008-1.61 2.008-.98 0-1.63-.73-1.63-2zm8.685 3.452h2.293l2.305-6.972h-1.89l-1.437 4.894-1.427-4.894h-2.177l2.333 6.972z" fill="#FFF"/><path d="M76.637 12h4.773v-1.715h-2.548V4.993h-2.225V12zm9.556-5.214l-.695 2.54h1.38l-.685-2.54zM82.695 12L84.9 4.993h2.87L89.967 12h-2.352l-.323-1.166h-2.214L84.763 12h-2.068zm8.802 0V4.993h3.312c1.724 0 2.39.794 2.39 1.833v.04c0 .812-.43 1.322-1.215 1.508.823.147 1.4.657 1.4 1.637v.04c0 1.244-.792 1.95-2.596 1.95h-3.293zm2.165-4.273h.677c.547 0 .763-.186.763-.617v-.04c0-.42-.225-.627-.774-.627h-.668v1.284zm0 2.813h.706c.568 0 .833-.265.833-.735v-.04c0-.46-.254-.715-.88-.715h-.658v1.49z" fill="#222629"/></g></svg>