<svg xmlns="http://www.w3.org/2000/svg" width="14.52px" height="14.52px" viewBox="0 0 14.52 14.52"><defs><style>.cls-1{fill:#fff;}</style></defs><title>Ресурс 2</title><g id="Слой_2" data-name="Слой 2"><g id="Layer_1" data-name="Layer 1"><path class="cls-1" d="M7.26,2.2A.21.21,0,0,0,7,2.41l0,5a.22.22,0,0,0,.19.11H11A.22.22,0,0,0,11,7H7.47V2.41A.22.22,0,0,0,7.26,2.2Z"/><path class="cls-1" d="M7.26,0A7.26,7.26,0,0,0,2.13,12.4,7.26,7.26,0,0,0,12.39,2.13,7.24,7.24,0,0,0,7.26,0Zm4.82,12.09A6.82,6.82,0,0,1,2.43,2.44a6.83,6.83,0,0,1,9.65,0,6.81,6.81,0,0,1,0,9.65Z"/></g></g></svg>