<svg xmlns="http://www.w3.org/2000/svg" width="1.54mm" height="1.54mm" viewBox="0 0 4.35 4.35"><defs><style>.cls-1{fill:#191919;}</style></defs><title>Ресурс 2</title><g id="Слой_2" data-name="Слой 2"><g id="Layer_1" data-name="Layer 1"><path class="cls-1" d="M4.31,4.07,2.42,2.18,4.31.29a.14.14,0,0,0,0-.2L4.26,0a.14.14,0,0,0-.2,0L2.18,1.93.29,0a.14.14,0,0,0-.2,0L0,.09a.14.14,0,0,0,0,.2L1.93,2.18,0,4.07a.14.14,0,0,0,0,.2l.05.05a.14.14,0,0,0,.2,0L2.18,2.42,4.07,4.31a.14.14,0,0,0,.2,0l.05-.05A.14.14,0,0,0,4.31,4.07Z"/></g></g></svg>