<svg xmlns="http://www.w3.org/2000/svg" width="9.36mm" height="8.15mm" viewBox="0 0 26.54 23.1"><defs></defs><title>Ресурс 5</title><g id="Слой_2" data-name="Слой 2"><g id="Layer_1" data-name="Layer 1"><path class="cls-1" d="M24.45,2.09a7.15,7.15,0,0,0-10.11,0L13.27,3.16,12.2,2.09A7.15,7.15,0,0,0,2.09,12.21L12.78,22.89a.67.67,0,0,0,.35.19.64.64,0,0,0,.62-.19L24.45,12.21a7.16,7.16,0,0,0,0-10.11Zm-1,9.15L13.27,21.46,3.05,11.24a5.79,5.79,0,0,1,8.18-8.18l1.55,1.55a.72.72,0,0,0,1,0L15.3,3.06a5.79,5.79,0,1,1,8.18,8.18Z"/></g></g></svg>