<svg xmlns="http://www.w3.org/2000/svg" width="8.46mm" height="8.5mm" viewBox="0 0 23.99 24.09"><title>Ресурс 1</title><g id="Слой_2" data-name="Слой 2"><g id="Layer_1" data-name="Layer 1"><path class="cls-1" d="M4.87,0h.28a.23.23,0,0,1,.17.25s0,.07,0,.11q0,1.13,0,2.25t0,2.48c0,.23,0,.45,0,.68s.06.2.19.2a5.47,5.47,0,0,0,.56,0,.21.21,0,0,0,.19-.18,1.38,1.38,0,0,0,0-.21c0-.26,0-.52,0-.79q0-2.24,0-4.49c0-.16,0-.23.18-.28H19.37a4.13,4.13,0,0,1,1,.11,4.7,4.7,0,0,1,2.51,1.55,4.46,4.46,0,0,1,1,2.15A7.62,7.62,0,0,1,24,5.13C24,6,24,6.84,24,7.7c0,.13,0,.17-.17.17H16.58a.53.53,0,0,1-.4-.15,5.83,5.83,0,0,0-1-.79,6,6,0,0,0-4.27-.8,6.12,6.12,0,0,0-3.1,1.58.56.56,0,0,1-.4.16H.19C0,7.87,0,7.84,0,7.69S0,7.26,0,7c0-.91,0-1.81,0-2.72a4.56,4.56,0,0,1,.4-1.58A5,5,0,0,1,2,.88l0,0v0Q2,3,2,5.18c0,.2,0,.4,0,.6S2.1,6,2.23,6a5,5,0,0,0,.54,0A.21.21,0,0,0,3,5.74a1.82,1.82,0,0,0,0-.23Q3,3.08,3,.65a.78.78,0,0,0,0-.1C3,.39,3,.37,3.11.3A1.28,1.28,0,0,1,3.56.16c.12,0,.15,0,.13.14a.89.89,0,0,0,0,.13q0,2.2,0,4.39c0,.32,0,.64,0,1,0,.14.05.2.19.2h.52c.16,0,.23-.08.25-.24a2,2,0,0,0,0-.27c0-.86,0-1.72,0-2.57s0-1.7,0-2.55C4.64.09,4.66.06,4.87,0ZM17.75,4.05h0c0,.45,0,.89,0,1.34a.71.71,0,0,0,.75.72H21a.73.73,0,0,0,.77-.76q0-1.3,0-2.59A.72.72,0,0,0,21,2H18.49a.71.71,0,0,0-.75.73C17.74,3.17,17.75,3.61,17.75,4.05Z"/><path class="cls-2" d="M7,8.6a6.09,6.09,0,0,0-1.05,4.53,5.92,5.92,0,0,0,2,3.62,6.1,6.1,0,0,0,7.72.3,6,6,0,0,0,2.37-4A6.1,6.1,0,0,0,17,8.6h6.84a.17.17,0,0,1,.17.17c0,.14,0,.28,0,.41q0,1.49,0,3c0,2.43,0,4.86,0,7.29a4.49,4.49,0,0,1-1.24,3.1A4.6,4.6,0,0,1,20.12,24a4.4,4.4,0,0,1-.79.08c-4.87,0-9.75,0-14.62,0A4.67,4.67,0,0,1,.16,20.52,5.18,5.18,0,0,1,0,19.25q0-3.4,0-6.8C0,11.29,0,10.13,0,9a1.46,1.46,0,0,1,0-.15A.21.21,0,0,1,.24,8.6H7Z"/><path class="cls-2" d="M12,7.43a4.72,4.72,0,1,1-4.75,4.72A4.72,4.72,0,0,1,12,7.43Zm3.48,4.78a3.48,3.48,0,1,0-3.38,3.43A3.47,3.47,0,0,0,15.49,12.21Z"/></g></g></svg>