<svg xmlns="http://www.w3.org/2000/svg" width="5.88mm" height="7.33mm" viewBox="0 0 16.66 20.78"><defs><style>.cls-1{fill:#adaeae;fill-rule:evenodd;}</style></defs><title>Ресурс 5</title><g id="Слой_2" data-name="Слой 2"><g id="Layer_1" data-name="Layer 1"><path class="cls-1" d="M8.33,0A4.89,4.89,0,0,0,3.44,4.89V8.26H.76A.76.76,0,0,0,0,9V20a.76.76,0,0,0,.76.76H15.89a.76.76,0,0,0,.76-.76V9a.76.76,0,0,0-.76-.76H13.22V4.89A4.89,4.89,0,0,0,8.33,0ZM4.27,4.89a4.05,4.05,0,1,1,8.11,0V8.26H4.27Zm11.55,4.2V19.95H.83V9.09Z"/></g></g></svg>