<svg xmlns="http://www.w3.org/2000/svg" width="6.11mm" height="7.2mm" viewBox="0 0 17.31 20.42"><title>Ресурс 7</title><g id="Слой_2" data-name="Слой 2"><g id="Layer_1" data-name="Layer 1"><polygon points="5.16 4.39 5.16 4.39 5.16 4.39 5.16 4.39"/><path d="M11.61,9.58A5.77,5.77,0,0,0,12.88,6.4a9.88,9.88,0,0,0,0-2.06h0a4.21,4.21,0,0,0-2-3.75A4.6,4.6,0,0,0,8.7,0H8.63A4.6,4.6,0,0,0,6.4.57a4.21,4.21,0,0,0-2,3.77h0a9.91,9.91,0,0,0,0,2.06A5.77,5.77,0,0,0,5.69,9.58a3.77,3.77,0,0,0,2.89,1.25h.14A3.79,3.79,0,0,0,11.61,9.58ZM8.67,10h0a3,3,0,0,1-2.35-1C4.9,7.51,5.13,4.69,5.16,4.42a.29.29,0,0,1,0,0,3.62,3.62,0,0,1,1.42-3,3.62,3.62,0,0,1,2-.58h.05a3.74,3.74,0,0,1,2.13.66,3.65,3.65,0,0,1,1.33,2.93v0s.32,3-1.11,4.65A3,3,0,0,1,8.67,10Z"/><path d="M17.31,16.33v0s0,0,0,0,0,0,0-.07c0-.82-.08-2.72-1.82-3.31h0a12.59,12.59,0,0,1-3.63-1.66.38.38,0,0,0-.29-.06.39.39,0,0,0-.16.71,13.23,13.23,0,0,0,3.87,1.77h0c1.11.4,1.24,1.54,1.27,2.58h0a.7.7,0,0,0,0,.08v0a8,8,0,0,1-.09,1.37l0,.08-.07,0a16,16,0,0,1-7.68,1.79A16,16,0,0,1,1,17.84l-.08,0,0-.08a7.57,7.57,0,0,1-.09-1.37s0,0,0-.06,0,0,0,0h0c0-1,.16-2.19,1.27-2.58h0a13.31,13.31,0,0,0,3.85-1.76h0a.39.39,0,0,0,.16-.25A.39.39,0,0,0,6,11.33a.39.39,0,0,0-.55-.1h0a12.5,12.5,0,0,1-3.64,1.66h0C.09,13.5,0,15.39,0,16.2H0a1.1,1.1,0,0,1,0,.12H0a6.2,6.2,0,0,0,.21,1.88.36.36,0,0,0,.15.18h0a16.05,16.05,0,0,0,8.3,2,16.15,16.15,0,0,0,8.3-2,.39.39,0,0,0,.15-.18A6.52,6.52,0,0,0,17.31,16.33Z"/></g></g></svg>