<svg xmlns="http://www.w3.org/2000/svg" width="73.06mm" height="27.47mm" viewBox="0 0 207.09 77.87"><title>Ресурс 1</title><g id="Слой_2" data-name="Слой 2"><g id="Layer_1" data-name="Layer 1"><path class="cls-1" d="M109.14,76.67H187.3a20.48,20.48,0,0,0,19.63-14.43l0-.17a2.47,2.47,0,0,0-.86-2.72l-54.5-41.17V7.77a2.47,2.47,0,0,0-2.47-2.47h-9.74a2.47,2.47,0,0,0-2.47,2.47v3.47l-.21.26a21.36,21.36,0,0,1-16.56,8,21.25,21.25,0,0,1-6.34-1A21.32,21.32,0,0,1,99.55,3.2a2.48,2.48,0,0,0-2.42-2H94.48A2.46,2.46,0,0,0,92.2,2.73l-8.63,21a18.82,18.82,0,0,0,11.79,25.1l57.4,18-.4,1.85-48.91-5.86a1.3,1.3,0,0,0-1,.27,1.33,1.33,0,0,0,.66,2.37l36.75,4.38-.11,1.89H109.14a2.47,2.47,0,0,0,0,4.93Zm37.53-66.43v4.22l-5.58-4.22Zm-59.52,22a13.68,13.68,0,0,1,1-6.63L95.6,7.44l.92,1.95a26.26,26.26,0,0,0,15.84,13.83,26.09,26.09,0,0,0,7.81,1.2,26.22,26.22,0,0,0,19.1-8.31l.58-.62L151,23.92,146.81,36a1.33,1.33,0,0,0,.82,1.69,1.35,1.35,0,0,0,1.69-.82l3.93-11.3L159,30,155.48,40.2a1.33,1.33,0,0,0,2.51.87l3.27-9.42L167,36l-2.9,8.35a1.33,1.33,0,0,0,.82,1.69,1.36,1.36,0,0,0,1.69-.82l2.62-7.54,32.44,24.51-.34.7a15.54,15.54,0,0,1-3,4.24l-.41.41L87.22,32.89Zm9.67,11.89A13.83,13.83,0,0,1,89,38l-1.25-2.12L195.61,69.61l-2.47,1a15.63,15.63,0,0,1-10.52.41Z"/><path class="cls-1" d="M2.3,22.17H3.79a.63.63,0,0,0,.63-.63V5.11l13,16.81a.63.63,0,0,0,.5.25h1.28a.63.63,0,0,0,.63-.63V.69a.63.63,0,0,0-.63-.63H17.66A.63.63,0,0,0,17,.69V17.09L4.11.31a.63.63,0,0,0-.5-.25H2.3a.63.63,0,0,0-.63.63V21.54A.63.63,0,0,0,2.3,22.17Z"/><path class="cls-1" d="M24.63,22.17H39.1a.63.63,0,0,0,.63-.63V20.17a.63.63,0,0,0-.63-.63H26.75V11.66h9.7a.63.63,0,0,0,.63-.63V9.62A.63.63,0,0,0,36.45,9h-9.7V2.69H38.63a.63.63,0,0,0,.63-.63V.69a.63.63,0,0,0-.63-.63h-14A.63.63,0,0,0,24,.69V21.54A.63.63,0,0,0,24.63,22.17Z"/><path class="cls-1" d="M47.74,21.86a.63.63,0,0,0,.6.43h1.28a.63.63,0,0,0,.6-.45L55.3,5.46l5,16.38a.63.63,0,0,0,.61.45h1.34a.63.63,0,0,0,.6-.43L70.07.9a.63.63,0,0,0-.6-.84H67.84a.63.63,0,0,0-.6.43L61.59,17.12,56.5.45A.63.63,0,0,0,55.9,0H54.65A.63.63,0,0,0,54,.45L49,17.12,43.33.49a.63.63,0,0,0-.6-.43H41.07a.63.63,0,0,0-.6.84Z"/><path class="cls-1" d="M9.06,37,8.83,37c-3.48-1-5.45-1.66-5.45-3.76,0-1.94,1.87-3.15,4.88-3.15a10.3,10.3,0,0,1,5.93,1.8.63.63,0,0,0,1-.52V29.77a.63.63,0,0,0-.29-.53A12.31,12.31,0,0,0,8.2,27.38C3,27.38.63,30.3.63,33.19c0,4.31,3.68,5.36,7.25,6.39l.16,0c3.58,1,5.6,1.69,5.6,4.11s-2.21,3.8-5.5,3.8A11.48,11.48,0,0,1,1,45.16a.63.63,0,0,0-1,.48v1.7a.63.63,0,0,0,.24.5,13.74,13.74,0,0,0,8,2.37c4.81,0,8.17-2.66,8.17-6.47C16.42,39.15,12.16,37.94,9.06,37Z"/><path class="cls-1" d="M25,49.84h1.49a.63.63,0,0,0,.63-.63V30.37h6.81a.63.63,0,0,0,.63-.63V28.37a.63.63,0,0,0-.63-.63H17.52a.63.63,0,0,0-.63.63v1.37a.63.63,0,0,0,.63.63h6.81V49.21A.63.63,0,0,0,25,49.84Z"/><path class="cls-1" d="M51.28,30.37a.63.63,0,0,0,.63-.63V28.37a.63.63,0,0,0-.63-.63h-14a.63.63,0,0,0-.63.63V49.21a.63.63,0,0,0,.63.63H51.76a.63.63,0,0,0,.63-.63V47.84a.63.63,0,0,0-.63-.63H39.41V39.33h9.7a.63.63,0,0,0,.63-.63V37.3a.63.63,0,0,0-.63-.63h-9.7v-6.3Z"/><path class="cls-1" d="M71.3,34c0-3.86-2.72-6.26-7.09-6.26h-8.7a.63.63,0,0,0-.63.63V49.21a.63.63,0,0,0,.63.63H57a.63.63,0,0,0,.63-.63V40.28h6.57C68.51,40.28,71.3,37.81,71.3,34Zm-7.24-3.63c2,0,4.49.63,4.49,3.63s-2.44,3.66-4.49,3.66H57.63V30.37Z"/><circle class="cls-1" cx="71.02" cy="48.11" r="1.82"/><path class="cls-1" d="M9.06,64.72l-.22-.06c-3.48-1-5.45-1.66-5.45-3.76,0-1.94,1.87-3.15,4.88-3.15a10.29,10.29,0,0,1,5.93,1.79.63.63,0,0,0,1-.52V57.44a.63.63,0,0,0-.29-.53A12.31,12.31,0,0,0,8.2,55C3,55,.63,58,.63,60.86c0,4.31,3.68,5.36,7.25,6.39l.16,0c3.58,1,5.6,1.69,5.6,4.11s-2.21,3.8-5.5,3.8A11.48,11.48,0,0,1,1,72.83a.63.63,0,0,0-1,.48V75a.63.63,0,0,0,.24.5,13.74,13.74,0,0,0,8,2.37c4.81,0,8.17-2.66,8.17-6.47C16.42,66.83,12.16,65.61,9.06,64.72Z"/><path class="cls-1" d="M34.23,57.41V56a.63.63,0,0,0-.63-.63H17.22a.63.63,0,0,0-.63.63v1.37a.63.63,0,0,0,.63.63H24V76.88a.63.63,0,0,0,.63.63h1.49a.63.63,0,0,0,.63-.63V58H33.6A.63.63,0,0,0,34.23,57.41Z"/><path class="cls-1" d="M44.7,55c-6.29,0-11,4.91-11,11.41s4.74,11.41,11,11.41,11-4.91,11-11.41S51,55,44.7,55Zm0,20.16c-4.7,0-8.24-3.76-8.24-8.75S40,57.74,44.7,57.74s8.21,3.75,8.21,8.72S49.38,75.21,44.7,75.21Z"/><path class="cls-1" d="M70.91,67.48a5.81,5.81,0,0,0,4.7-5.93c0-3.73-2.75-6.14-7-6.14H59.35a.63.63,0,0,0-.63.63V76.88a.63.63,0,0,0,.63.63h1.49a.63.63,0,0,0,.63-.63v-9.1h6.33l6.6,9.47a.63.63,0,0,0,.52.27h1.73a.63.63,0,0,0,.52-1ZM61.47,58h7c1.63,0,4.37.46,4.37,3.54s-2.38,3.57-4.37,3.57h-7Z"/><path class="cls-1" d="M94.7,74.88H82.35V67H92a.63.63,0,0,0,.63-.63V65a.63.63,0,0,0-.63-.63h-9.7V58H94.22a.63.63,0,0,0,.63-.63V56a.63.63,0,0,0-.63-.63h-14a.63.63,0,0,0-.63.63V76.88a.63.63,0,0,0,.63.63H94.7a.63.63,0,0,0,.63-.63V75.51A.63.63,0,0,0,94.7,74.88Z"/></g></g></svg>