<svg xmlns="http://www.w3.org/2000/svg" width="10.17px" height="14.52px" viewBox="0 0 10.17 14.52"><defs><style>.cls-1{fill:#fff;}</style></defs><title>Ресурс 1</title><g id="Слой_2" data-name="Слой 2"><g id="Layer_1" data-name="Layer 1"><path class="cls-1" d="M5.13,3.18A1.86,1.86,0,1,0,7,5,1.86,1.86,0,0,0,5.13,3.18Zm0,3.18A1.33,1.33,0,1,1,6.46,5,1.33,1.33,0,0,1,5.13,6.36Zm0,0"/><path class="cls-1" d="M8.68,1.49a5.09,5.09,0,0,0-7.19,0A5.79,5.79,0,0,0,1,8.64l4.08,5.88L9.15,8.65a5.79,5.79,0,0,0-.47-7.16Zm0,6.85L5.09,13.59,1.44,8.33a5.24,5.24,0,0,1,.42-6.46,4.56,4.56,0,0,1,6.44,0,5.24,5.24,0,0,1,.42,6.47Zm0,0"/></g></g></svg>