<svg xmlns="http://www.w3.org/2000/svg" width="4.86mm" height="4.86mm" viewBox="0 0 13.77 13.77"><defs><style>.cls-1{fill:#fff;}</style></defs><title>Ресурс 3</title><g id="Слой_2" data-name="Слой 2"><g id="Layer_1" data-name="Layer 1"><path class="cls-1" d="M3.72,4l-.16.15c-.62.62,0,1.87,2.1,3.93A14.43,14.43,0,0,0,7.81,9.94c.82.53,1.42.62,1.78.26L9.75,10c.8-.81,1.32-1.34,3.1.08a2,2,0,0,1,.92,1.37c0,.63-.56,1.19-1.07,1.68l0,0-.24.23a1.51,1.51,0,0,1-1.08.33,5.92,5.92,0,0,1-2-.43A15.74,15.74,0,0,1,4.05,9.72,15.67,15.67,0,0,1,.43,4.44C-.1,3-.14,1.82.32,1.36l.18-.19.09-.1C1.08.57,1.62,0,2.23,0h0A2,2,0,0,1,3.65.92C5.07,2.7,4.53,3.22,3.72,4Z"/></g></g></svg>