<svg xmlns="http://www.w3.org/2000/svg" width="6.12mm" height="7.4mm" viewBox="0 0 17.34 20.96"><defs><style>.cls-1{fill:#191919;}</style></defs><title>Ресурс 2</title><g id="Слой_2" data-name="Слой 2"><g id="Layer_1" data-name="Layer 1"><path class="cls-1" d="M16.67,5H15.2l.13-.23a2.49,2.49,0,0,0,.16-1.92,2.59,2.59,0,0,0-3.11-1.64A8.36,8.36,0,0,0,9.47,2.69a3.3,3.3,0,0,1,.1-.33c.34-.91.88-1,1.25-1a.68.68,0,1,0,0-1.35A2.5,2.5,0,0,0,8.67,1.17,2.5,2.5,0,0,0,6.51,0a.68.68,0,1,0,0,1.35,1.24,1.24,0,0,1,1.16.78,2.93,2.93,0,0,1,.23.67,8.75,8.75,0,0,0-3-1.59,2.79,2.79,0,0,0-.69-.09A2.5,2.5,0,0,0,1.9,4.77L2,5H.68A.68.68,0,0,0,0,5.67v3.6A.68.68,0,0,0,.68,10h.95V20.29A.68.68,0,0,0,2.3,21H15a.68.68,0,0,0,.68-.68V10h.95a.68.68,0,0,0,.68-.68V5.67A.68.68,0,0,0,16.67,5ZM16,6.35V8.6H9.35V6.35ZM9.35,19.61V10h5v9.66ZM8,6.35V8.6H1.35V6.35ZM7.88,4.79A4.14,4.14,0,0,1,6.28,5a10.51,10.51,0,0,1-2.49-.28A1.16,1.16,0,0,1,3,3.26a1.22,1.22,0,0,1,1.5-.74A6.51,6.51,0,0,1,7.83,4.69Zm6.26-.64a1.15,1.15,0,0,1-.68.57A10.52,10.52,0,0,1,11,5a4,4,0,0,1-1.6-.21l0-.1h0A6.42,6.42,0,0,1,12.7,2.52a1.23,1.23,0,0,1,1.51.74A1.15,1.15,0,0,1,14.13,4.15ZM8,10v9.66H3V10Z"/></g></g></svg>