<svg xmlns="http://www.w3.org/2000/svg" width="8.46mm" height="8.46mm" viewBox="0 0 23.99 23.99"><title>Ресурс 6</title><g id="Слой_2" data-name="Слой 2"><g id="Слой_2-2" data-name="Слой 2"><path d="M8.44,12.92a.28.28,0,0,0-.14.39c.34,1.08.66,2.17,1,3.26,0,.06.05.12.11.25.08-.72.17-1.36.22-2a.8.8,0,0,1,.3-.59q3.35-3,6.67-6c.1-.09.12-.26.17-.39-.13,0-.3,0-.4.05Z"/><path d="M20.29,0H3.7A3.7,3.7,0,0,0,0,3.7v16.6A3.7,3.7,0,0,0,3.7,24h16.6a3.7,3.7,0,0,0,3.7-3.7V3.7A3.7,3.7,0,0,0,20.29,0Zm-.53,6.22q-1.27,6.11-2.54,12.23c-.17.83-.78,1.06-1.47.56l-3.44-2.49L12,16.3l-.46.42L10,18.2c-.51.48-1,.36-1.17-.3-.46-1.38-.93-2.77-1.38-4.16A.52.52,0,0,0,7,13.36c-1.11-.33-2.22-.66-3.32-1a2.59,2.59,0,0,1-.62-.45v-.35a3.22,3.22,0,0,1,.64-.43L18.83,5.45c.27-.1.53-.21.79,0S19.82,5.94,19.76,6.22Z"/></g></g></svg>