<svg xmlns="http://www.w3.org/2000/svg" width="8.46mm" height="8.46mm" viewBox="0 0 23.99 23.99"><title>Ресурс 2</title><g id="Слой_2" data-name="Слой 2"><g id="Layer_1" data-name="Layer 1"><path class="cls-1" d="M20.29,0H3.7A3.7,3.7,0,0,0,0,3.7v16.6A3.7,3.7,0,0,0,3.7,24h16.6a3.7,3.7,0,0,0,3.7-3.7V3.7A3.7,3.7,0,0,0,20.29,0Zm-.6,16.89h-2c-.66,0-.74-.48-1.95-1.63-1-1-1.46-1.08-1.7-1.08s-.37.16-.37.55v1.54c0,.45-.26.63-1.33.63A6.82,6.82,0,0,1,7.13,13.8c-2.21-3-2.77-5.2-2.77-5.68a.43.43,0,0,1,.45-.44h1.8c.47,0,.65.14.81.63.82,2.42,2.29,4.54,2.91,4.54.23,0,.26-.19.26-.69V9.71c0-1.19-.67-1.29-.67-1.73a.32.32,0,0,1,.36-.3h2.88c.38,0,.44.14.44.6v3.34c0,.38.08.52.25.52s.4-.13.78-.55a16.29,16.29,0,0,0,2.16-3.38.66.66,0,0,1,.69-.44h1.8c.36,0,.51.19.44.54a21.45,21.45,0,0,1-2.28,3.89c-.19.3-.27.47,0,.76s.8.78,1.17,1.28a4.87,4.87,0,0,1,1.5,2.22C20.09,16.79,19.9,16.89,19.69,16.89Z"/></g></g></svg>