
<svg width="24" height="24" viewBox="0 0 24 24" xmlns="http://www.w3.org/2000/svg"><title>ic-vkontakte</title><path d="M12.785 16.958s.288-.035.436-.21c.137-.158.132-.46.132-.46s-.018-1.405.578-1.612c.586-.204 1.34 1.36 2.14 1.96.604.454 1.063.355 1.063.355l2.137-.032s1.117-.075.587-1.038c-.043-.08-.31-.712-1.588-2.014-1.342-1.362-1.162-1.142.452-3.5.983-1.434 1.376-2.31 1.253-2.685-.117-.357-.84-.262-.84-.262l-2.405.017s-.18-.027-.31.06c-.13.084-.214.282-.214.282s-.38 1.11-.888 2.055c-1.072 1.993-1.5 2.098-1.675 1.975-.408-.29-.306-1.16-.306-1.777 0-1.932.268-2.737-.52-2.945-.262-.07-.454-.115-1.123-.123-.86-.01-1.585.004-1.997.224-.273.147-.485.474-.356.493.16.022.52.105.71.39.248.368.24 1.192.24 1.192s.14 2.274-.332 2.556c-.324.194-.768-.2-1.724-2.01-.49-.925-.858-1.95-.858-1.95s-.072-.19-.2-.293c-.153-.124-.37-.163-.37-.163l-2.284.016s-.344.01-.47.174c-.112.145-.01.446-.01.446s1.79 4.588 3.818 6.9c1.86 2.12 3.968 1.98 3.968 1.98h.957z" fill="#FFF" fill-rule="evenodd"/></svg>