<svg xmlns="http://www.w3.org/2000/svg" width="8.46mm" height="8.46mm" viewBox="0 0 23.99 23.99"><defs><style>.cls-1{fill-rule:evenodd;}</style></defs><title>Ресурс 5</title><g id="Слой_2" data-name="Слой 2"><g id="Layer_1" data-name="Layer 1"><path class="cls-1" d="M20.29,0H3.7A3.7,3.7,0,0,0,0,3.7v16.6A3.7,3.7,0,0,0,3.7,24h16.6a3.7,3.7,0,0,0,3.7-3.7V3.7A3.7,3.7,0,0,0,20.29,0ZM12.13,18.13a6.38,6.38,0,0,1-3.51-1l-2.44.78L7,15.5a6.26,6.26,0,0,1-1.22-3.71,4.79,4.79,0,0,1,0-.61,6.38,6.38,0,0,1,12.7.12c0,.17,0,.34,0,.49a6.36,6.36,0,0,1-6.38,6.34Zm3.48-4.81c-.19-.09-1.1-.54-1.27-.61s-.3-.09-.43.1a9.07,9.07,0,0,1-.58.71c-.12.13-.22.14-.4.05a4.87,4.87,0,0,1-1.5-.92,5.48,5.48,0,0,1-1-1.27c-.1-.19,0-.28.08-.39a2.38,2.38,0,0,0,.28-.32.33.33,0,0,0,.06-.08,1.84,1.84,0,0,0,.12-.22.32.32,0,0,0,0-.32c0-.09-.41-1-.57-1.37s-.31-.31-.41-.31H9.58a.64.64,0,0,0-.49.23,2.06,2.06,0,0,0-.56,2.16A4.06,4.06,0,0,0,9.19,12a7.5,7.5,0,0,0,3.17,2.78c1.9.74,1.9.49,2.24.47a1.85,1.85,0,0,0,1.26-.88,1.47,1.47,0,0,0,.1-.88c0-.06-.17-.12-.35-.21Zm4.1-1.71a7.58,7.58,0,0,0-15.15-.14,2.68,2.68,0,0,0,0,.32,7.53,7.53,0,0,0,1.09,3.89l-1.37,4,4.2-1.33a7.61,7.61,0,0,0,11.25-6.6c0-.06,0-.12,0-.18Z"/></g></g></svg>