<?xml version="1.0" encoding="UTF-8"?>
<svg width="40px" height="40px" viewBox="0 0 40 40" version="1.1" xmlns="http://www.w3.org/2000/svg" xmlns:xlink="http://www.w3.org/1999/xlink">
    <!-- Generator: Sketch 46.2 (44496) - http://www.bohemiancoding.com/sketch -->
    <title>Company Copy 10</title>
    <desc>Created with Sketch.</desc>
    <defs></defs>
    <g id="Page-1" stroke="none" stroke-width="1" fill="none" fill-rule="evenodd">
        <g id="Company-Copy-10" transform="translate(-1089.000000, -642.000000)">
            <g id="Group-4" transform="translate(1089.000000, 642.000000)">
                <rect id="Rectangle-26-Copy-2" fill="#FFF45F" x="0" y="0" width="40" height="40" rx="1.6"></rect>
                <g id="IMAGE-2017-08-14-14-34-04_5m-02" transform="translate(10.000000, 8.000000)" fill-rule="nonzero" fill="#141414">
                    <g id="Group">
                        <path d="M20.7387805,16.24 L17.6809756,14.515 C18.0804878,13.6 18.3058537,12.595 18.3058537,11.54 C18.3058537,10.515 18.0958537,9.54 17.7168293,8.645 L20.7387805,6.945 C20.8514634,6.88 20.9334146,6.78 20.9692683,6.655 C21.005122,6.53 20.9846341,6.4 20.9180488,6.29 L20.4468293,5.495 C20.3136585,5.265 20.0114634,5.19 19.7758537,5.32 L16.7641463,7.015 C15.534878,5.405 13.6653659,4.29 11.5295122,4.025 L11.5295122,0.515 C11.5295122,0.25 11.3092683,0.035 11.0378049,0.035 L10.0953659,0.035 C9.82390244,0.035 9.60365854,0.25 9.60365854,0.515 L9.60365854,4.015 C7.45243902,4.27 5.57268293,5.38 4.33317073,6.99 L1.22926829,5.24 C0.993658537,5.11 0.696585366,5.185 0.558292683,5.415 L0.0870731707,6.21 C0.0204878049,6.32 0.00512195122,6.45 0.0358536585,6.575 C0.0717073171,6.7 0.148536585,6.8 0.266341463,6.865 L3.3804878,8.62 C2.99634146,9.52 2.78121951,10.505 2.78121951,11.535 C2.78121951,12.6 3.00658537,13.615 3.41634146,14.535 L0.266341463,16.31 L0.266341463,16.31 C0.0307317073,16.44 -0.046097561,16.735 0.0870731707,16.965 L0.558292683,17.76 C0.645365854,17.91 0.809268293,18 0.983414634,18 C1.0704878,18 1.15243902,17.98 1.22926829,17.935 L4.39463415,16.15 C5.63414634,17.72 7.49341463,18.805 9.60878049,19.055 L9.60878049,22.505 C9.60878049,22.77 9.82902439,22.985 10.1004878,22.985 L11.0429268,22.985 C11.3143902,22.985 11.5346341,22.77 11.5346341,22.505 L11.5346341,19.05 C13.6397561,18.79 15.4836585,17.7 16.7129268,16.13 L19.7809756,17.86 C19.8578049,17.9 19.9397561,17.925 20.0268293,17.925 C20.0678049,17.925 20.1139024,17.92 20.154878,17.91 C20.2829268,17.875 20.3853659,17.8 20.4519512,17.685 L20.9231707,16.89 C20.9897561,16.78 21.005122,16.65 20.9743902,16.525 C20.9334146,16.405 20.8565854,16.305 20.7387805,16.24 Z M15.7756098,11.54 C15.7756098,14.355 13.4297561,16.645 10.5460976,16.645 C7.66243902,16.645 5.31658537,14.355 5.31658537,11.54 C5.31658537,8.725 7.66243902,6.435 10.5460976,6.435 C13.4297561,6.435 15.7756098,8.725 15.7756098,11.54 Z" id="Shape"></path>
                        <path d="M14.5412195,12.785 C14.1519512,12.565 13.757561,12.395 13.3887805,12.28 C13.23,12.125 13.0609756,11.88 13.0763415,11.565 C13.1070732,11.04 13.4297561,10.82 13.5731707,10.75 C13.8958537,10.64 14.2390244,10.485 14.5668293,10.295 C15.1046341,9.99 15.5707317,9.63 15.8780488,9.285 C16.2160976,8.9 16.3236585,8.575 16.1853659,8.345 C16.0470732,8.115 15.7090244,8.04 15.1968293,8.135 C14.7358537,8.22 14.1826829,8.435 13.644878,8.74 C13.23,8.975 12.8560976,9.24 12.5641463,9.515 C12.3592683,9.56 12.0673171,9.575 11.8112195,9.41 C11.4117073,9.155 11.34,8.82 11.334878,8.64 C11.4117073,8.29 11.4526829,7.885 11.4526829,7.475 C11.4526829,6.34 11.13,5.13 10.5307317,5.13 C9.93146341,5.13 9.60878049,6.34 9.60878049,7.475 C9.60878049,7.935 9.66,8.38 9.75219512,8.76 C9.69585366,8.975 9.56780488,9.255 9.26560976,9.4 C8.92243902,9.57 8.64585366,9.535 8.46658537,9.47 C8.1797561,9.21 7.82634146,8.96 7.43195122,8.74 C6.89414634,8.435 6.34097561,8.22 5.88,8.135 C5.36780488,8.04 5.02463415,8.115 4.89146341,8.345 C4.75317073,8.575 4.86073171,8.9 5.19878049,9.285 C5.50609756,9.63 5.97219512,9.99 6.51,10.295 C6.88390244,10.505 7.26804878,10.675 7.62658537,10.79 C7.80585366,10.95 8.0004878,11.205 7.98,11.55 C7.96463415,11.82 7.87243902,12.04 7.70341463,12.205 C7.30390244,12.315 6.86341463,12.5 6.43317073,12.745 C5.89536585,13.05 5.42926829,13.41 5.12195122,13.755 C4.78390244,14.14 4.67634146,14.465 4.81463415,14.695 C5.11170732,15.2 6.34609756,14.87 7.35512195,14.3 C7.69317073,14.11 8.01073171,13.895 8.27195122,13.67 C8.45634146,13.595 8.87634146,13.47 9.24512195,13.705 C9.48073171,13.855 9.63439024,14.05 9.69585366,14.285 C9.60365854,14.665 9.55243902,15.11 9.55243902,15.57 C9.55243902,16.705 9.87512195,17.915 10.4743902,17.915 C11.0736585,17.915 11.3963415,16.705 11.3963415,15.57 C11.3963415,15.175 11.3604878,14.79 11.2887805,14.445 C11.3297561,14.24 11.447561,13.89 11.7958537,13.72 C12.1595122,13.54 12.4514634,13.59 12.6409756,13.665 C12.917561,13.905 13.2556098,14.145 13.6243902,14.35 C14.6334146,14.92 15.8678049,15.25 16.164878,14.745 C16.3031707,14.515 16.1956098,14.19 15.857561,13.805 C15.545122,13.445 15.0790244,13.085 14.5412195,12.785 Z M11.4219512,11.055 L11.4219512,12.11 L10.4846341,12.635 L9.54731707,12.11 L9.54731707,11.055 L10.4846341,10.53 L11.4219512,11.055 Z" id="Shape"></path>
                    </g>
                </g>
            </g>
        </g>
    </g>
</svg>