<?xml version="1.0" encoding="UTF-8"?>
<svg width="40px" height="40px" viewBox="0 0 40 40" version="1.1" xmlns="http://www.w3.org/2000/svg" xmlns:xlink="http://www.w3.org/1999/xlink">
    <!-- Generator: Sketch 46.2 (44496) - http://www.bohemiancoding.com/sketch -->
    <title>Company Copy 10</title>
    <desc>Created with Sketch.</desc>
    <defs></defs>
    <g id="Page-1" stroke="none" stroke-width="1" fill="none" fill-rule="evenodd">
        <g id="Company-Copy-10" transform="translate(-783.000000, -645.000000)">
            <g id="Group-12" transform="translate(783.000000, 645.000000)">
                <g id="Group-6">
                    <g id="Group-5" fill="#FFF45F">
                        <rect id="Rectangle-26-Copy-3" x="0" y="0" width="40" height="40" rx="1.6"></rect>
                    </g>
                    <path d="M14.5390634,26 C17.2940186,26 19.3055731,24.526387 19.4804909,21.7280108 L16.1862059,21.7280108 C16.069594,22.7997294 15.3990758,23.2909337 14.4661809,23.2909337 C13.1834505,23.2909337 12.4837793,22.308525 12.4837793,20.5372124 L12.4837793,20.4181326 C12.4837793,18.6170501 13.2126034,17.6644114 14.407875,17.6644114 C15.3261934,17.6644114 15.8363703,18.2151556 15.9384057,19.1975643 L19.3493026,19.1975643 C19.1015024,16.3098782 17.2065597,15 14.3932985,15 C11.3176607,15 9,17.1434371 9,20.4330176 L9,20.5520974 C9,23.811908 10.7783309,26 14.5390634,26 L14.5390634,26 Z M21.3212156,25.8064953 L24.6300771,25.8064953 L24.6300771,21.7131258 L27.6911385,21.7131258 L27.6911385,25.8064953 L31,25.8064953 L31,15.1637348 L27.6911385,15.1637348 L27.6911385,19.0933694 L24.6300771,19.0933694 L24.6300771,15.1637348 L21.3212156,15.1637348 L21.3212156,25.8064953 Z" id="CH" fill="#141414"></path>
                </g>
            </g>
        </g>
    </g>
</svg>