<svg xmlns="http://www.w3.org/2000/svg" viewBox="0 0 60 60"><path d="M11.68 13l-.833-5h-2.99C7.41 6.28 5.86 5 4 5 1.794 5 0 6.794 0 9s1.794 4 4 4c1.86 0 3.41-1.28 3.858-3h1.294l.5 3h-.038l5.17 26.016c-2.464.188-4.517 2.086-4.76 4.474-.14 1.405.32 2.812 1.27 3.858C12.24 48.398 13.593 49 15 49h2c0 3.31 2.69 6 6 6s6-2.69 6-6h11c0 3.31 2.69 6 6 6s6-2.69 6-6h4c.553 0 1-.447 1-1s-.447-1-1-1h-4.35c-.826-2.327-3.043-4-5.65-4s-4.824 1.673-5.65 4h-11.7c-.826-2.327-3.043-4-5.65-4s-4.824 1.673-5.65 4H15c-.842 0-1.652-.362-2.224-.993-.577-.64-.848-1.46-.76-2.316.15-1.508 1.545-2.69 3.172-2.69h39.824C57.762 41 60 38.764 60 36.014V13H11.68zM4 11c-1.103 0-2-.897-2-2s.897-2 2-2 2 .897 2 2-.897 2-2 2zm42 34c2.206 0 4 1.794 4 4s-1.794 4-4 4-4-1.794-4-4 1.794-4 4-4zm-23 0c2.206 0 4 1.794 4 4s-1.794 4-4 4-4-1.794-4-4 1.794-4 4-4zm35-8.987C58 37.66 56.66 39 55.013 39H16.82l-4.77-24H58v21.013z"/></svg>